RobotoExtremo-opsz8-wght900-wdth25-XTRAmin.ufo
<glyph name="exclam" format="2">
  <advance width="755"/>
  <unicode hex="0021"/>
  <outline>
    <contour>
      <point x="186.0" y="139.64000000000001" type="qcurve" smooth="yes"/>
      <point x="186.0" y="206.24"/>
      <point x="284.9" y="301.28000000000003"/>
      <point x="377.34" y="301.28000000000003" type="qcurve" smooth="yes"/>
      <point x="469.78" y="301.28000000000003"/>
      <point x="568.6800000000001" y="206.24"/>
      <point x="568.6800000000001" y="139.64000000000001" type="qcurve" smooth="yes"/>
      <point x="568.6800000000001" y="73.04"/>
      <point x="469.78" y="-22.0"/>
      <point x="377.34" y="-22.0" type="qcurve" smooth="yes"/>
      <point x="284.9" y="-22.0"/>
      <point x="186.0" y="73.04"/>
    </contour>
    <contour>
      <point x="242.58" y="463.8000000000001" type="line"/>
      <point x="216.28" y="1456.0" type="line"/>
      <point x="537.4" y="1456.0" type="line"/>
      <point x="511.10000000000014" y="463.8000000000001" type="line"/>
    </contour>
  </outline>
</glyph>
<glyph name="zero" format="2">
  <advance width="902"/>
  <unicode hex="0030"/>
  <outline>
    <contour>
      <point x="90.0" y="361.58620689655174" type="qcurve" smooth="yes"/>
      <point x="90.0" y="1094.4137931034484" type="line" smooth="yes"/>
      <point x="90.0" y="1262.9379310344827"/>
      <point x="265.9448275862069" y="1486.0"/>
      <point x="449.73793103448276" y="1486.0" type="qcurve" smooth="yes"/>
      <point x="630.5310344827586" y="1486.0"/>
      <point x="812.4758620689655" y="1262.9379310344827"/>
      <point x="812.4758620689655" y="1094.4137931034484" type="qcurve" smooth="yes"/>
      <point x="812.4758620689655" y="361.58620689655174" type="line" smooth="yes"/>
      <point x="812.4758620689655" y="198.98620689655172"/>
      <point x="630.5310344827586" y="-30.0"/>
      <point x="449.73793103448276" y="-30.0" type="qcurve" smooth="yes"/>
      <point x="265.9448275862069" y="-30.0"/>
      <point x="90.0" y="198.98620689655172"/>
    </contour>
    <contour>
      <point x="412.7310344827586" y="351.58620689655174" type="line" smooth="yes"/>
      <point x="412.7310344827586" y="300.9862068965517"/>
      <point x="413.6" y="198.99999999999994"/>
      <point x="449.73793103448276" y="198.99999999999994" type="qcurve" smooth="yes"/>
      <point x="484.8758620689655" y="198.99999999999994"/>
      <point x="488.7448275862069" y="300.9862068965517"/>
      <point x="488.7448275862069" y="351.58620689655174" type="qcurve" smooth="yes"/>
      <point x="488.7448275862069" y="1104.4137931034484" type="line" smooth="yes"/>
      <point x="488.7448275862069" y="1161.6689655172413"/>
      <point x="484.8758620689655" y="1257.0"/>
      <point x="449.73793103448276" y="1257.0" type="qcurve" smooth="yes"/>
      <point x="413.6" y="1257.0"/>
      <point x="412.7310344827586" y="1161.6689655172413"/>
      <point x="412.7310344827586" y="1104.4137931034484" type="qcurve" smooth="yes"/>
    </contour>
  </outline>
</glyph>
<glyph name="two" format="2">
  <advance width="902"/>
  <unicode hex="0032"/>
  <outline>
    <contour>
      <point x="61.0" y="0.0" type="line"/>
      <point x="61.0" y="149.0" type="line"/>
      <point x="469.77241379310345" y="901.951724137931" type="line" smooth="yes"/>
      <point x="493.14482758620693" y="975.6413793103449"/>
      <point x="494.8620689655172" y="1079.7862068965514"/>
      <point x="494.8620689655172" y="1139.551724137931" type="qcurve" smooth="yes"/>
      <point x="494.8620689655172" y="1225.551724137931"/>
      <point x="468.7241379310345" y="1257.0"/>
      <point x="449.00689655172414" y="1257.0" type="qcurve" smooth="yes"/>
      <point x="427.2896551724138" y="1258.0"/>
      <point x="400.7310344827586" y="1171.2"/>
      <point x="387.7310344827586" y="1005.0" type="qcurve" smooth="yes"/>
      <point x="387.7310344827586" y="995.0" type="line"/>
      <point x="65.0" y="995.0" type="line"/>
      <point x="65.0" y="1005.0" type="line" smooth="yes"/>
      <point x="65.0" y="1260.7379310344827"/>
      <point x="285.5586206896552" y="1486.0"/>
      <point x="452.00689655172414" y="1486.0" type="qcurve" smooth="yes"/>
      <point x="624.4551724137931" y="1486.0"/>
      <point x="814.8620689655172" y="1324.2827586206897"/>
      <point x="814.8620689655172" y="1149.551724137931" type="qcurve" smooth="yes"/>
      <point x="814.8620689655172" y="1079.7172413793105"/>
      <point x="799.1931034482759" y="950.4275862068965"/>
      <point x="710.2758620689655" y="779.1103448275862" type="qcurve" smooth="yes"/>
      <point x="425.64137931034475" y="198.68965517241378" type="line"/>
      <point x="842.551724137931" y="198.68965517241378" type="line"/>
      <point x="842.551724137931" y="0.0" type="line"/>
    </contour>
  </outline>
</glyph>
<glyph name="five" format="2">
  <advance width="902"/>
  <unicode hex="0035"/>
  <outline>
    <contour>
      <point x="66.0" y="390.0" type="qcurve" smooth="yes"/>
      <point x="66.0" y="410.0" type="line"/>
      <point x="386.7310344827586" y="410.0" type="line"/>
      <point x="386.7310344827586" y="390.0" type="line" smooth="yes"/>
      <point x="386.7310344827586" y="299.0"/>
      <point x="401.21379310344827" y="197.0"/>
      <point x="448.4689655172414" y="197.0" type="qcurve" smooth="yes"/>
      <point x="462.99310344827586" y="197.0"/>
      <point x="501.28275862068966" y="309.0"/>
      <point x="501.28275862068966" y="465.0" type="qcurve" smooth="yes"/>
      <point x="501.28275862068966" y="609.0"/>
      <point x="492.99310344827586" y="728.0"/>
      <point x="463.4689655172414" y="728.0" type="qcurve" smooth="yes"/>
      <point x="414.7448275862069" y="728.0"/>
      <point x="336.13793103448273" y="659.7310344827587"/>
      <point x="330.68275862068964" y="627.7724137931034" type="qcurve"/>
      <point x="110.22758620689655" y="711.0" type="line"/>
      <point x="179.30344827586208" y="1456.0" type="line"/>
      <point x="780.1724137931035" y="1456.0" type="line"/>
      <point x="780.1724137931035" y="1232.0" type="line"/>
      <point x="431.0344827586207" y="1232.0" type="line"/>
      <point x="402.6896551724138" y="923.1241379310345" type="line"/>
      <point x="438.1862068965517" y="946.2758620689655"/>
      <point x="480.13103448275865" y="950.0"/>
      <point x="513.6206896551724" y="950.0" type="qcurve" smooth="yes"/>
      <point x="637.2620689655173" y="950.0"/>
      <point x="823.2827586206897" y="694.0"/>
      <point x="823.2827586206897" y="465.0" type="qcurve" smooth="yes"/>
      <point x="823.2827586206897" y="235.0"/>
      <point x="601.7241379310344" y="-30.0"/>
      <point x="448.4689655172414" y="-30.0" type="qcurve" smooth="yes"/>
      <point x="258.48275862068965" y="-30.0"/>
      <point x="66.0" y="209.0"/>
    </contour>
  </outline>
</glyph>
<glyph name="question" format="2">
  <advance width="1238"/>
  <unicode hex="003F"/>
  <outline>
    <contour>
      <point x="377.5" y="139.64000000000001" type="qcurve" smooth="yes"/>
      <point x="377.5" y="206.24"/>
      <point x="476.40000000000003" y="301.28000000000003"/>
      <point x="567.84" y="301.28000000000003" type="qcurve" smooth="yes"/>
      <point x="660.2800000000001" y="301.28000000000003"/>
      <point x="759.1800000000001" y="206.24"/>
      <point x="759.1800000000001" y="139.64000000000001" type="qcurve" smooth="yes"/>
      <point x="759.1800000000001" y="73.04"/>
      <point x="661.2800000000001" y="-22.0"/>
      <point x="568.84" y="-22.0" type="qcurve" smooth="yes"/>
      <point x="476.40000000000003" y="-22.0"/>
      <point x="377.5" y="73.04"/>
    </contour>
    <contour>
      <point x="210.81931034482764" y="1048.5" type="line"/>
      <point x="210.81931034482764" y="1080.9" type="line" smooth="yes"/>
      <point x="210.81931034482764" y="1283.3944827586208"/>
      <point x="416.9924137931035" y="1476.0"/>
      <point x="596.0737931034483" y="1476.0" type="qcurve" smooth="yes"/>
      <point x="774.9041379310346" y="1476.0"/>
      <point x="975.7593103448276" y="1274.3944827586208"/>
      <point x="975.7593103448276" y="1071.0" type="qcurve" smooth="yes"/>
      <point x="975.7593103448276" y="930.0537931034482"/>
      <point x="890.2572413793104" y="741.4137931034483"/>
      <point x="808.8158620689655" y="678.8937931034483" type="qcurve" smooth="yes"/>
      <point x="748.1" y="632.428275862069"/>
      <point x="725.1" y="502.31586206896566"/>
      <point x="725.1" y="444.8" type="qcurve" smooth="yes"/>
      <point x="725.1" y="434.8" type="line"/>
      <point x="404.42" y="434.8" type="line"/>
      <point x="404.42" y="444.8" type="line" smooth="yes"/>
      <point x="404.42" y="562.5579310344827"/>
      <point x="457.50689655172414" y="720.0427586206896"/>
      <point x="549.1213793103448" y="815.3662068965517" type="qcurve" smooth="yes"/>
      <point x="625.6475862068966" y="878.4710344827587"/>
      <point x="655.0793103448275" y="981.3289655172413"/>
      <point x="655.0793103448275" y="1071.0" type="qcurve" smooth="yes"/>
      <point x="655.0793103448275" y="1174.2393103448276"/>
      <point x="626.4510344827586" y="1258.24"/>
      <point x="596.0737931034483" y="1258.24" type="qcurve" smooth="yes"/>
      <point x="564.6255172413794" y="1258.24"/>
      <point x="531.3193103448276" y="1177.0393103448275"/>
      <point x="531.3193103448276" y="1080.9" type="qcurve" smooth="yes"/>
      <point x="531.3193103448276" y="1048.5" type="line"/>
    </contour>
  </outline>
</glyph>
<glyph name="E" format="2">
  <advance width="998"/>
  <unicode hex="0045"/>
  <anchor x="679.3199999999999" y="1184.0" name="top"/>
  <outline>
    <contour>
      <point x="170.0" y="0.0" type="line"/>
      <point x="170.0" y="1456.0" type="line"/>
      <point x="919.0620689655173" y="1456.0" type="line"/>
      <point x="919.0620689655173" y="1233.56" type="line"/>
      <point x="483.56" y="1233.56" type="line"/>
      <point x="483.56" y="862.72" type="line"/>
      <point x="823.3820689655172" y="862.72" type="line"/>
      <point x="823.3820689655172" y="639.28" type="line"/>
      <point x="483.56" y="639.28" type="line"/>
      <point x="483.56" y="222.44" type="line"/>
      <point x="929.3820689655172" y="222.44" type="line"/>
      <point x="929.3820689655172" y="0.0" type="line"/>
    </contour>
  </outline>
</glyph>
<glyph name="H" format="2">
  <advance width="1261"/>
  <unicode hex="0048"/>
  <outline>
    <contour>
      <point x="170.0" y="0.0" type="line"/>
      <point x="170.0" y="1456.0" type="line"/>
      <point x="483.56" y="1456.0" type="line"/>
      <point x="483.56" y="862.1" type="line"/>
      <point x="777.6703448275863" y="862.1" type="line"/>
      <point x="777.6703448275863" y="1456.0" type="line"/>
      <point x="1091.2303448275861" y="1456.0" type="line"/>
      <point x="1091.2303448275861" y="0.0" type="line"/>
      <point x="777.6703448275863" y="0.0" type="line"/>
      <point x="777.6703448275863" y="638.66" type="line"/>
      <point x="483.56" y="638.66" type="line"/>
      <point x="483.56" y="0.0" type="line"/>
    </contour>
  </outline>
</glyph>
<glyph name="Q" format="2">
  <advance width="1177"/>
  <unicode hex="0051"/>
  <outline>
    <contour>
      <point x="115.0" y="686.8" type="qcurve" smooth="yes"/>
      <point x="115.0" y="769.2" type="line" smooth="yes"/>
      <point x="115.0" y="1107.44"/>
      <point x="365.9924137931034" y="1486.0"/>
      <point x="588.4841379310344" y="1486.0" type="qcurve" smooth="yes"/>
      <point x="810.8158620689654" y="1486.0"/>
      <point x="1060.968275862069" y="1107.44"/>
      <point x="1060.968275862069" y="769.2" type="qcurve" smooth="yes"/>
      <point x="1060.968275862069" y="686.8" type="line" smooth="yes"/>
      <point x="1060.968275862069" y="348.56"/>
      <point x="810.8158620689654" y="-30.0"/>
      <point x="588.4841379310344" y="-30.0" type="qcurve" smooth="yes"/>
      <point x="365.9924137931034" y="-30.0"/>
      <point x="115.0" y="348.56"/>
    </contour>
    <contour>
      <point x="436.11999999999995" y="686.8" type="line" smooth="yes"/>
      <point x="436.11999999999995" y="460.04"/>
      <point x="501.5324137931035" y="200.92000000000002"/>
      <point x="588.4841379310344" y="200.92000000000002" type="qcurve" smooth="yes"/>
      <point x="675.2758620689656" y="200.92000000000002"/>
      <point x="738.8482758620688" y="460.04"/>
      <point x="738.8482758620688" y="686.8" type="qcurve" smooth="yes"/>
      <point x="738.8482758620688" y="769.2" type="line" smooth="yes"/>
      <point x="738.8482758620688" y="995.96"/>
      <point x="675.2758620689656" y="1255.08"/>
      <point x="588.4841379310344" y="1255.08" type="qcurve" smooth="yes"/>
      <point x="501.5324137931035" y="1255.08"/>
      <point x="436.11999999999995" y="995.96"/>
      <point x="436.11999999999995" y="769.2" type="qcurve" smooth="yes"/>
    </contour>
    <contour>
      <point x="779.6275862068965" y="-266.6" type="line"/>
      <point x="441.7889655172414" y="-9.931034482758623" type="line"/>
      <point x="655.5489655172414" y="179.26896551724147" type="line"/>
      <point x="997.7075862068966" y="-72.39999999999999" type="line"/>
    </contour>
  </outline>
</glyph>
<glyph name="U" format="2">
  <advance width="1200"/>
  <unicode hex="0055"/>
  <anchor x="675.7337931034482" y="1432.0" name="top"/>
  <outline>
    <contour>
      <point x="155.0" y="549.9200000000001" type="qcurve" smooth="yes"/>
      <point x="155.0" y="1456.0" type="line"/>
      <point x="467.56" y="1456.0" type="line"/>
      <point x="467.56" y="549.9200000000001" type="line" smooth="yes"/>
      <point x="467.56" y="372.872380952381"/>
      <point x="523.2092535593778" y="200.92000000000002"/>
      <point x="599.6455172413793" y="200.92000000000002" type="qcurve" smooth="yes"/>
      <point x="674.9034515677721" y="200.92000000000002"/>
      <point x="729.7310344827588" y="375.1034154351396"/>
      <point x="729.7310344827588" y="549.9200000000001" type="qcurve" smooth="yes"/>
      <point x="729.7310344827588" y="1456.0" type="line"/>
      <point x="1043.2910344827585" y="1456.0" type="line"/>
      <point x="1043.2910344827585" y="549.9200000000001" type="line" smooth="yes"/>
      <point x="1043.2910344827585" y="260.2725368248772"/>
      <point x="803.3999999999999" y="-30.0"/>
      <point x="599.6455172413793" y="-30.0" type="qcurve" smooth="yes"/>
      <point x="395.89103448275864" y="-30.0"/>
      <point x="155.0" y="260.2725368248772"/>
    </contour>
  </outline>
</glyph>
<glyph name="X" format="2">
  <advance width="831"/>
  <unicode hex="0058"/>
  <outline>
    <contour>
      <point x="25.0" y="0.0" type="line"/>
      <point x="266.55586206896544" y="804.0" type="line"/>
      <point x="355.2006896551724" y="804.0" type="line"/>
      <point x="540.9710344827586" y="1456.0" type="line"/>
      <point x="792.688275862069" y="1456.0" type="line"/>
      <point x="562.5641379310345" y="672.0" type="line"/>
      <point x="474.68827586206896" y="672.0" type="line"/>
      <point x="276.71724137931034" y="0.0" type="line"/>
    </contour>
    <contour>
      <point x="37.431724137931035" y="1456.0" type="line"/>
      <point x="372.0068965517242" y="1456.0" type="line"/>
      <point x="558.7772413793103" y="804.0" type="line"/>
      <point x="563.5641379310346" y="804.0" type="line"/>
      <point x="805.12" y="0.0" type="line"/>
      <point x="468.31379310344835" y="0.0" type="line"/>
      <point x="270.111724137931" y="672.0" type="line"/>
      <point x="266.55586206896544" y="672.0" type="line"/>
    </contour>
  </outline>
</glyph>
<glyph name="a" format="2">
  <advance width="992"/>
  <unicode hex="0061"/>
  <anchor x="550.5448275862069" y="1116.0" name="top"/>
  <outline>
    <contour>
      <point x="75.0" y="325.0" type="qcurve" smooth="yes"/>
      <point x="75.0" y="501.0"/>
      <point x="295.75172413793103" y="698.0"/>
      <point x="467.4689655172414" y="698.0" type="qcurve" smooth="yes"/>
      <point x="538.0551724137931" y="698.0" type="line"/>
      <point x="538.0551724137931" y="784.0" type="line" smooth="yes"/>
      <point x="538.0551724137931" y="855.0"/>
      <point x="511.7543371171557" y="945.0"/>
      <point x="478.8137931034483" y="945.0" type="qcurve" smooth="yes"/>
      <point x="445.4030094043887" y="945.0"/>
      <point x="416.3034482758621" y="858.0"/>
      <point x="416.3034482758621" y="799.0" type="qcurve" smooth="yes"/>
      <point x="416.3034482758621" y="794.0" type="line"/>
      <point x="112.30344827586207" y="794.0" type="line"/>
      <point x="112.30344827586207" y="799.0" type="line" smooth="yes"/>
      <point x="112.30344827586207" y="938.0"/>
      <point x="312.90344827586205" y="1146.0"/>
      <point x="482.0827586206897" y="1146.0" type="qcurve" smooth="yes"/>
      <point x="653.5310344827586" y="1146.0"/>
      <point x="842.0551724137931" y="964.0"/>
      <point x="842.0551724137931" y="784.0" type="qcurve" smooth="yes"/>
      <point x="842.0551724137931" y="240.0" type="line" smooth="yes"/>
      <point x="842.0551724137931" y="175.0"/>
      <point x="855.4" y="60.0"/>
      <point x="866.7448275862068" y="16.0" type="qcurve"/>
      <point x="866.7448275862068" y="0.0" type="line"/>
      <point x="566.0137931034483" y="0.0" type="line"/>
      <point x="559.510368808551" y="19.037563052666147"/>
      <point x="547.0551724137931" y="75.91724137931034"/>
      <point x="541.3241379310344" y="106.06896551724138" type="qcurve"/>
      <point x="523.9708477840568" y="54.53485925596435"/>
      <point x="434.3224558452481" y="-20.0"/>
      <point x="364.28275862068966" y="-20.0" type="qcurve" smooth="yes"/>
      <point x="242.79310344827587" y="-20.0"/>
      <point x="75.0" y="158.0"/>
    </contour>
    <contour>
      <point x="379.0" y="335.0" type="qcurve" smooth="yes"/>
      <point x="379.0" y="262.99999999999994"/>
      <point x="399.16141422959413" y="181.0"/>
      <point x="419.97241379310344" y="181.0" type="qcurve" smooth="yes"/>
      <point x="465.4284604176785" y="181.0"/>
      <point x="538.0551724137931" y="279.99310344827586"/>
      <point x="538.0551724137931" y="336.7586206896552" type="qcurve"/>
      <point x="538.0551724137931" y="515.0" type="line"/>
      <point x="478.81379310344823" y="515.0" type="line" smooth="yes"/>
      <point x="429.50876847290647" y="515.0"/>
      <point x="379.0" y="418.0"/>
    </contour>
  </outline>
</glyph>
<glyph name="d" format="2">
  <advance width="1033"/>
  <unicode hex="0064"/>
  <outline>
    <contour>
      <point x="75.0" y="542.0" type="qcurve" smooth="yes"/>
      <point x="75.0" y="574.0" type="line" smooth="yes"/>
      <point x="75.0" y="818.0"/>
      <point x="249.9034482758621" y="1136.0"/>
      <point x="398.3103448275862" y="1136.0" type="qcurve" smooth="yes"/>
      <point x="463.5310344827586" y="1136.0"/>
      <point x="577.0551724137931" y="1087.8896551724133"/>
      <point x="600.6275862068966" y="1038.9310344827586" type="qcurve"/>
      <point x="600.6275862068966" y="1536.0" type="line"/>
      <point x="904.6275862068966" y="1536.0" type="line"/>
      <point x="904.6275862068966" y="0.0" type="line"/>
      <point x="610.703448275862" y="0.0" type="line"/>
      <point x="605.1655172413793" y="90.06896551724138" type="line"/>
      <point x="603.8965517241379" y="90.06896551724138" type="line"/>
      <point x="583.8620689655172" y="39.37931034482759"/>
      <point x="463.5310344827586" y="-20.0"/>
      <point x="398.3103448275862" y="-20.0" type="qcurve" smooth="yes"/>
      <point x="249.9034482758621" y="-20.0"/>
      <point x="75.0" y="298.0"/>
    </contour>
    <contour>
      <point x="388.0" y="542.0" type="line" smooth="yes"/>
      <point x="388.0" y="397.0"/>
      <point x="437.13793103448273" y="201.0"/>
      <point x="488.62068965517244" y="201.0" type="qcurve" smooth="yes"/>
      <point x="522.4551724137931" y="201.0"/>
      <point x="587.4" y="269.7241379310345"/>
      <point x="600.6275862068966" y="316.7586206896552" type="qcurve"/>
      <point x="600.6275862068966" y="799.2413793103449" type="line"/>
      <point x="587.4" y="845.2758620689655"/>
      <point x="522.4551724137931" y="915.0"/>
      <point x="488.62068965517244" y="915.0" type="qcurve" smooth="yes"/>
      <point x="437.13793103448273" y="915.0"/>
      <point x="388.0" y="718.0"/>
      <point x="388.0" y="574.0" type="qcurve" smooth="yes"/>
    </contour>
  </outline>
</glyph>
<glyph name="e" format="2">
  <advance width="939"/>
  <unicode hex="0065"/>
  <anchor x="551.5448275862069" y="1115.0" name="top"/>
  <outline>
    <contour>
      <point x="75.0" y="542.0" type="qcurve" smooth="yes"/>
      <point x="75.0" y="574.0" type="line" smooth="yes"/>
      <point x="75.0" y="826.0"/>
      <point x="297.2896551724138" y="1146.0"/>
      <point x="478.351724137931" y="1146.0" type="qcurve" smooth="yes"/>
      <point x="664.4137931034483" y="1146.0"/>
      <point x="865.551724137931" y="846.0"/>
      <point x="865.551724137931" y="592.0" type="qcurve" smooth="yes"/>
      <point x="865.551724137931" y="479.0" type="line"/>
      <point x="270.11034482758623" y="479.0" type="line"/>
      <point x="270.11034482758623" y="681.0" type="line"/>
      <point x="563.0137931034483" y="681.0" type="line"/>
      <point x="561.0137931034483" y="596.4551724137931" type="line" smooth="yes"/>
      <point x="563.0137931034483" y="752.6896551724138"/>
      <point x="556.738439201452" y="937.0"/>
      <point x="456.50344827586207" y="937.0" type="qcurve" smooth="yes"/>
      <point x="426.1016505965027" y="937.0"/>
      <point x="370.3448275862069" y="727.0"/>
      <point x="370.3448275862069" y="574.0" type="qcurve" smooth="yes"/>
      <point x="370.3448275862069" y="542.0" type="line" smooth="yes"/>
      <point x="370.3448275862069" y="389.0"/>
      <point x="433.3658132307237" y="178.99999999999997"/>
      <point x="496.50344827586207" y="178.99999999999997" type="qcurve" smooth="yes"/>
      <point x="540.8906219787302" y="178.99999999999997"/>
      <point x="602.1310344827587" y="269.46206896551723"/>
      <point x="626.8965517241379" y="328.0" type="qcurve"/>
      <point x="836.0137931034483" y="172.0" type="line"/>
      <point x="802.5172413793103" y="94.0"/>
      <point x="619.9931034482759" y="-30.0"/>
      <point x="496.50344827586207" y="-30.0" type="qcurve" smooth="yes"/>
      <point x="293.2896551724138" y="-30.0"/>
      <point x="75.0" y="290.0"/>
    </contour>
  </outline>
</glyph>
<glyph name="f" format="2">
  <advance width="489"/>
  <unicode hex="0066"/>
  <outline>
    <contour>
      <point x="93.48965517241379" y="0.0" type="line"/>
      <point x="93.48965517241379" y="1131.6" type="line" smooth="yes"/>
      <point x="93.48965517241379" y="1339.1080898876405"/>
      <point x="291.83314369302786" y="1556.0"/>
      <point x="465.0993103448276" y="1556.0" type="qcurve" smooth="yes"/>
      <point x="481.94000000000005" y="1556.0"/>
      <point x="522.6924137931035" y="1548.0"/>
      <point x="539.6041379310344" y="1540.0" type="qcurve"/>
      <point x="533.6572413793103" y="1329.52" type="line"/>
      <point x="521.923448275862" y="1334.52"/>
      <point x="491.0468965517241" y="1340.52"/>
      <point x="473.8331034482759" y="1340.52" type="qcurve" smooth="yes"/>
      <point x="438.26826362358383" y="1340.52"/>
      <point x="397.76965517241376" y="1235.56"/>
      <point x="397.76965517241376" y="1131.6" type="qcurve" smooth="yes"/>
      <point x="397.76965517241376" y="1021.2199999999999" type="line"/>
      <point x="397.76965517241376" y="999.2199999999999" type="line"/>
      <point x="397.76965517241376" y="0.0" type="line"/>
    </contour>
    <contour>
      <point x="25.0" y="904.64" type="line"/>
      <point x="25.0" y="1115.8" type="line"/>
      <point x="230.8648275862069" y="1115.8" type="line"/>
      <point x="257.29241379310344" y="1115.8" type="line"/>
      <point x="498.9227586206897" y="1115.8" type="line"/>
      <point x="498.9227586206897" y="904.64" type="line"/>
    </contour>
  </outline>
</glyph>
<glyph name="i" format="2">
  <advance width="604"/>
  <unicode hex="0069"/>
  <outline>
    <contour>
      <point x="150.0" y="0.0" type="line"/>
      <point x="150.0" y="1116.0" type="line"/>
      <point x="454.00000000000006" y="1116.0" type="line"/>
      <point x="454.00000000000006" y="0.0" type="line"/>
    </contour>
    <contour>
      <point x="135.0" y="1393.0" type="qcurve" smooth="yes"/>
      <point x="135.0" y="1460.0"/>
      <point x="222.0" y="1550.0"/>
      <point x="302.0" y="1550.0" type="qcurve" smooth="yes"/>
      <point x="382.0" y="1550.0"/>
      <point x="469.0" y="1459.0"/>
      <point x="469.0" y="1393.0" type="qcurve" smooth="yes"/>
      <point x="469.0" y="1325.0"/>
      <point x="382.0" y="1235.0"/>
      <point x="302.0" y="1235.0" type="qcurve" smooth="yes"/>
      <point x="222.0" y="1235.0"/>
      <point x="135.0" y="1325.0"/>
    </contour>
  </outline>
</glyph>
<glyph name="j" format="2">
  <advance width="610"/>
  <unicode hex="006A"/>
  <outline>
    <contour>
      <point x="40.06206896551724" y="-410.0" type="qcurve"/>
      <point x="40.06206896551724" y="-201.0" type="line"/>
      <point x="52.40689655172414" y="-207.0"/>
      <point x="96.51724137931035" y="-221.0"/>
      <point x="113.66896551724139" y="-221.0" type="qcurve" smooth="yes"/>
      <point x="133.9310344827586" y="-221.0"/>
      <point x="157.0" y="-149.0"/>
      <point x="157.0" y="-66.0" type="qcurve" smooth="yes"/>
      <point x="157.0" y="1116.0" type="line"/>
      <point x="460.99999999999994" y="1116.0" type="line"/>
      <point x="460.99999999999994" y="-90.0" type="line" smooth="yes"/>
      <point x="460.99999999999994" y="-270.0"/>
      <point x="302.5448275862069" y="-436.0"/>
      <point x="147.62758620689655" y="-436.0" type="qcurve" smooth="yes"/>
      <point x="120.66896551724139" y="-436.0"/>
      <point x="55.9448275862069" y="-419.0"/>
    </contour>
    <contour>
      <point x="146.38620689655173" y="1393.0" type="qcurve" smooth="yes"/>
      <point x="146.38620689655173" y="1457.5379310344827"/>
      <point x="231.19310344827585" y="1546.344827586207"/>
      <point x="309.0" y="1546.344827586207" type="qcurve" smooth="yes"/>
      <point x="386.80689655172415" y="1546.344827586207"/>
      <point x="471.6137931034483" y="1457.5379310344827"/>
      <point x="471.6137931034483" y="1393.0" type="qcurve" smooth="yes"/>
      <point x="471.6137931034483" y="1326.4620689655173"/>
      <point x="386.80689655172415" y="1238.655172413793"/>
      <point x="309.0" y="1238.655172413793" type="qcurve" smooth="yes"/>
      <point x="231.19310344827585" y="1238.655172413793"/>
      <point x="146.38620689655173" y="1326.4620689655173"/>
    </contour>
  </outline>
</glyph>
<glyph name="n" format="2">
  <advance width="1040"/>
  <unicode hex="006E"/>
  <anchor x="638.838275862069" y="1115.68" name="top"/>
  <outline>
    <contour>
      <point x="138.0" y="0.0" type="line"/>
      <point x="138.0" y="1116.0" type="line"/>
      <point x="431.92413793103447" y="1116.0" type="line"/>
      <point x="437.46206896551723" y="1022.9310344827586" type="line"/>
      <point x="439.73103448275873" y="1022.9310344827586" type="line"/>
      <point x="467.85296932503206" y="1084.785854844301"/>
      <point x="579.2860127830821" y="1135.8"/>
      <point x="637.395172413793" y="1135.8" type="qcurve" smooth="yes"/>
      <point x="759.5383174560579" y="1135.8"/>
      <point x="914.7103448275861" y="941.1005527770467"/>
      <point x="911.7103448275861" y="711.9310344827586" type="qcurve" smooth="yes"/>
      <point x="911.7103448275861" y="0.0" type="line"/>
      <point x="606.7103448275863" y="0.0" type="line"/>
      <point x="606.7103448275863" y="713.9310344827586" type="line" smooth="yes"/>
      <point x="606.7103448275863" y="822.1722670579604"/>
      <point x="566.5994002998501" y="904.0"/>
      <point x="538.4689655172414" y="904.0" type="qcurve" smooth="yes"/>
      <point x="509.2204763597582" y="904.0"/>
      <point x="462.95717442684344" y="846.2427794636094"/>
      <point x="441.99999999999994" y="795.9310344827586" type="qcurve"/>
      <point x="441.99999999999994" y="0.0" type="line"/>
    </contour>
  </outline>
</glyph>
<glyph name="y" format="2">
  <advance width="767"/>
  <unicode hex="0079"/>
  <anchor x="510.10689655172416" y="1115.68" name="top"/>
  <outline>
    <contour>
      <point x="91.1296551724138" y="-416.0" type="qcurve"/>
      <point x="91.1296551724138" y="-201.0" type="line"/>
      <point x="107.75241379310344" y="-209.62"/>
      <point x="150.4248275862069" y="-219.0"/>
      <point x="168.97655172413795" y="-219.0" type="qcurve" smooth="yes"/>
      <point x="212.82785946649312" y="-219.0"/>
      <point x="275.4689655172414" y="-135.46896551724137"/>
      <point x="301.2758620689655" y="13.655172413793103" type="qcurve"/>
      <point x="226.19586206896548" y="13.655172413793103" type="line"/>
      <point x="17.0" y="1115.8" type="line"/>
      <point x="330.4137931034483" y="1115.8" type="line"/>
      <point x="388.58413793103455" y="504.0413793103449" type="line" smooth="yes"/>
      <point x="392.7879310344827" y="463.49137931034505"/>
      <point x="403.5096551724138" y="384.04137931034484"/>
      <point x="409.5896551724138" y="344.04137931034484" type="qcurve"/>
      <point x="411.80758620689653" y="344.04137931034484" type="line"/>
      <point x="417.8875862068966" y="384.04137931034484"/>
      <point x="426.55827586206897" y="463.49137931034494"/>
      <point x="431.81310344827585" y="504.0413793103449" type="qcurve" smooth="yes"/>
      <point x="512.6220689655172" y="1115.8" type="line"/>
      <point x="769.5558620689654" y="1115.8" type="line"/>
      <point x="529.2406896551723" y="-77.13103448275862" type="line" smooth="yes"/>
      <point x="480.6813793103447" y="-283.7"/>
      <point x="301.834797338173" y="-436.0"/>
      <point x="184.19448275862067" y="-436.0" type="qcurve" smooth="yes"/>
      <point x="154.3448275862069" y="-436.0"/>
      <point x="109.16137931034483" y="-427.24"/>
    </contour>
  </outline>
</glyph>
<glyph name="z" format="2">
  <advance width="761"/>
  <unicode hex="007A"/>
  <outline>
    <contour>
      <point x="70.0" y="0.0" type="line"/>
      <point x="70.0" y="204.0" type="line"/>
      <point x="333.5655172413793" y="895.0" type="line"/>
      <point x="74.53793103448277" y="895.0" type="line"/>
      <point x="74.53793103448277" y="1116.0" type="line"/>
      <point x="678.8275862068965" y="1116.0" type="line"/>
      <point x="678.8275862068965" y="913.0" type="line"/>
      <point x="420.26206896551724" y="221.0" type="line"/>
      <point x="696.9793103448276" y="221.0" type="line"/>
      <point x="696.9793103448276" y="0.0" type="line"/>
    </contour>
  </outline>
</glyph>
<glyph name="braceright" format="2">
  <advance width="792"/>
  <unicode hex="007D"/>
  <outline>
    <contour>
      <point x="183.96137931034485" y="-312.0" type="qcurve"/>
      <point x="183.96137931034485" y="-111.72" type="line"/>
      <point x="224.53103448275863" y="-111.72"/>
      <point x="290.8896551724138" y="-66.15310344827586"/>
      <point x="270.3737931034483" y="84.95862068965516" type="qcurve" smooth="yes"/>
      <point x="238.0" y="334.0" type="line" smooth="yes"/>
      <point x="225.3551724137931" y="419.6910344827586"/>
      <point x="299.4262068965517" y="532.2896551724139"/>
      <point x="401.6393103448276" y="574.0" type="qcurve"/>
      <point x="299.4262068965517" y="615.7103448275861"/>
      <point x="225.3551724137931" y="728.3089655172413"/>
      <point x="238.0" y="814.0" type="qcurve" smooth="yes"/>
      <point x="270.3737931034483" y="1063.0413793103448" type="line" smooth="yes"/>
      <point x="290.8896551724138" y="1214.1531034482757"/>
      <point x="224.53103448275863" y="1259.72"/>
      <point x="183.96137931034485" y="1259.72" type="qcurve"/>
      <point x="183.96137931034485" y="1460.0" type="line"/>
      <point x="386.9703448275862" y="1460.0"/>
      <point x="605.8365517241378" y="1289.8579310344828"/>
      <point x="573.0137931034483" y="1087.8413793103446" type="qcurve" smooth="yes"/>
      <point x="540.6400000000001" y="838.8" type="line" smooth="yes"/>
      <point x="525.0662068965519" y="731.42"/>
      <point x="590.3841379310345" y="662.8"/>
      <point x="645.275172413793" y="662.8" type="qcurve"/>
      <point x="645.275172413793" y="485.2" type="line"/>
      <point x="590.3841379310345" y="485.2"/>
      <point x="525.0662068965519" y="416.58"/>
      <point x="540.6400000000001" y="309.2" type="qcurve" smooth="yes"/>
      <point x="573.0137931034483" y="60.15862068965518" type="line" smooth="yes"/>
      <point x="605.8365517241378" y="-141.85793103448276"/>
      <point x="386.9703448275862" y="-312.0"/>
    </contour>
  </outline>
</glyph>
<glyph name="dollar.rvrn" format="2">
  <advance width="1420"/>
  <outline>
    <contour>
      <point x="277.4413793103448" y="468.93103448275855" type="qcurve" smooth="yes"/>
      <point x="277.4413793103448" y="481.6620689655173" type="line"/>
      <point x="599.2896551724136" y="481.6620689655173" type="line"/>
      <point x="599.2896551724136" y="468.9310344827586" type="line" smooth="yes"/>
      <point x="599.2896551724136" y="340.50344827586207"/>
      <point x="679.9655172413793" y="238.9655172413793"/>
      <point x="749.7586206896551" y="238.9655172413793" type="qcurve" smooth="yes"/>
      <point x="829.9379310344827" y="238.9655172413793"/>
      <point x="900.8827586206896" y="335.2344827586207"/>
      <point x="900.8827586206896" y="434.2" type="qcurve" smooth="yes"/>
      <point x="900.8827586206896" y="520.8551724137931"/>
      <point x="861.0137931034483" y="581.2689655172413"/>
      <point x="680.9931034482759" y="616.3448275862069" type="qcurve" smooth="yes"/>
      <point x="490.31724137931036" y="652.3448275862069"/>
      <point x="294.3241379310345" y="831.4137931034483"/>
      <point x="294.3241379310345" y="1018.1862068965518" type="qcurve" smooth="yes"/>
      <point x="294.3241379310345" y="1229.193103448276"/>
      <point x="552.8137931034482" y="1454.5379310344827"/>
      <point x="744.951724137931" y="1454.5379310344827" type="qcurve" smooth="yes"/>
      <point x="956.5931034482758" y="1454.5379310344827"/>
      <point x="1202.655172413793" y="1213.4620689655173"/>
      <point x="1202.655172413793" y="996.7241379310345" type="qcurve" smooth="yes"/>
      <point x="1202.655172413793" y="983.9931034482759" type="line"/>
      <point x="879.5379310344827" y="983.9931034482759" type="line"/>
      <point x="879.5379310344827" y="996.7241379310345" type="line" smooth="yes"/>
      <point x="879.5379310344827" y="1108.6896551724137"/>
      <point x="812.744827586207" y="1220.6896551724137"/>
      <point x="745.951724137931" y="1220.6896551724137" type="qcurve" smooth="yes"/>
      <point x="679.1586206896552" y="1220.6896551724137"/>
      <point x="617.1724137931035" y="1135.4206896551725"/>
      <point x="617.1724137931035" y="1041.1862068965518" type="qcurve" smooth="yes"/>
      <point x="617.1724137931035" y="959.5310344827586"/>
      <point x="657.4275862068965" y="909.6551724137931"/>
      <point x="832.5241379310345" y="878.0413793103448" type="qcurve" smooth="yes"/>
      <point x="1035.5103448275863" y="836.3103448275862"/>
      <point x="1223.0" y="651.9724137931034"/>
      <point x="1223.0" y="456.2" type="qcurve" smooth="yes"/>
      <point x="1223.0" y="233.7310344827586"/>
      <point x="961.0137931034484" y="4.386206896551724"/>
      <point x="749.7586206896551" y="4.386206896551724" type="qcurve" smooth="yes"/>
      <point x="537.5793103448276" y="4.386206896551724"/>
      <point x="277.4413793103448" y="226.0"/>
    </contour>
    <contour>
      <point x="624.2206896551725" y="-135.3793103448276" type="line"/>
      <point x="624.2206896551725" y="106.0689655172414" type="line"/>
      <point x="870.1448275862069" y="106.0689655172414" type="line"/>
      <point x="870.1448275862069" y="114.6206896551724" type="line"/>
      <point x="886.2206896551725" y="104.62068965517241" type="line"/>
      <point x="886.2206896551725" y="-135.3793103448276" type="line"/>
    </contour>
    <contour>
      <point x="623.2965517241379" y="1306.0689655172414" type="line"/>
      <point x="623.2965517241379" y="1334.0689655172414" type="line"/>
      <point x="607.2206896551725" y="1344.0689655172414" type="line"/>
      <point x="607.2206896551725" y="1620.6206896551723" type="line"/>
      <point x="867.2206896551725" y="1620.6206896551723" type="line"/>
      <point x="867.2206896551725" y="1306.0689655172414" type="line"/>
    </contour>
  </outline>
</glyph>
